<svg xmlns="http://www.w3.org/2000/svg" viewBox="0 0 512 512">
  <rect width="512" height="512" rx="96" fill="#fff7ed"/>
  <path d="M144 154c0-34 28-62 62-62h100c34 0 62 28 62 62v206c0 34-28 62-62 62H206c-34 0-62-28-62-62V154Z" fill="#1f2933"/>
  <path d="M184 178c0-18 14-32 32-32h80c18 0 32 14 32 32v38H184v-38Z" fill="#dcfce7"/>
  <path d="M184 242h144v108c0 18-14 32-32 32h-80c-18 0-32-14-32-32V242Z" fill="#ffffff"/>
  <circle cx="224" cy="302" r="22" fill="#f59e0b"/>
  <circle cx="288" cy="302" r="22" fill="#ef4444"/>
  <path d="M218 350h76" stroke="#1f2933" stroke-width="18" stroke-linecap="round"/>
</svg>
